<?xml version="1.0" encoding="UTF-8" standalone="no"?>
<!-- Created with Inkscape (http://www.inkscape.org/) -->

<svg
   xmlns:dc="http://purl.org/dc/elements/1.1/"
   xmlns:cc="http://creativecommons.org/ns#"
   xmlns:rdf="http://www.w3.org/1999/02/22-rdf-syntax-ns#"
   xmlns:svg="http://www.w3.org/2000/svg"
   xmlns="http://www.w3.org/2000/svg"
   xmlns:xlink="http://www.w3.org/1999/xlink"
   version="1.1"
   width="48"
   height="48"
   id="svg2">
  <defs
     id="defs4">
    <linearGradient
       id="linearGradient3784">
      <stop
         id="stop3790"
         style="stop-color:#e10000;stop-opacity:1"
         offset="0" />
      <stop
         id="stop3788"
         style="stop-color:#ff0000;stop-opacity:1"
         offset="1" />
    </linearGradient>
    <linearGradient
       id="linearGradient3760">
      <stop
         id="stop3762"
         style="stop-color:#c40000;stop-opacity:1"
         offset="0" />
      <stop
         id="stop3764"
         style="stop-color:#ff0000;stop-opacity:1"
         offset="1" />
    </linearGradient>
    <radialGradient
       cx="-163.18785"
       cy="1023.0287"
       r="4.4537005"
       fx="-163.18785"
       fy="1023.0287"
       id="radialGradient3766"
       xlink:href="#linearGradient3760"
       gradientUnits="userSpaceOnUse"
       gradientTransform="matrix(3.0527262,0.02458307,-0.0101908,1.2654954,345.40546,-270.96226)" />
    <radialGradient
       cx="-163.18785"
       cy="1023.0287"
       r="4.4537005"
       fx="-163.18785"
       fy="1023.0287"
       id="radialGradient3799"
       xlink:href="#linearGradient3760"
       gradientUnits="userSpaceOnUse"
       gradientTransform="matrix(3.0527262,0.02458307,-0.0101908,1.2654954,345.40546,-270.96226)" />
  </defs>
  <metadata
     id="metadata7">
    <rdf:RDF>
      <cc:Work
         rdf:about="">
        <dc:format>image/svg+xml</dc:format>
        <dc:type
           rdf:resource="http://purl.org/dc/dcmitype/StillImage" />
        <dc:title></dc:title>
      </cc:Work>
    </rdf:RDF>
  </metadata>
  <g
     transform="translate(0,-1004.3622)"
     id="layer1">
    <g
       transform="matrix(1.1981979,0,0,1.1981979,-2.5621552,-207.0944)"
       id="g3794">
      <path
         d="m -166.23085,1014.3689 6.95726,0 c 0.5396,0 1.00157,0.4351 0.974,0.974 l -0.9546,18.6576 c -0.0964,1.46 -1.68765,2.0473 -3.5774,2.272 -2.04827,-0.1924 -3.43786,-1.0033 -3.50361,-2.0652 l -0.86965,-18.8644 c -0.0249,-0.539 0.43441,-0.974 0.974,-0.974 z"
         transform="matrix(0.9835355,-0.18071505,0.18071505,0.9835355,0,0)"
         id="rect2987"
         style="fill:url(#radialGradient3799);fill-opacity:1;stroke:none" />
      <path
         d="m 31.073684,18.063158 a 8.9052629,8.9052629 0 1 1 -17.810526,0 8.9052629,8.9052629 0 1 1 17.810526,0 z"
         transform="translate(0,1004.3622)"
         id="path2985"
         style="fill:#ff0000;fill-opacity:1;stroke:none" />
      <path
         d="m 36.531369,22.276199 a 6.6095877,6.6095877 0 1 1 -13.219175,0 6.6095877,6.6095877 0 1 1 13.219175,0 z"
         transform="matrix(0.65540541,0,0,0.65540541,4.7284621,1005.6521)"
         id="path3792"
         style="fill:#ffffff;fill-opacity:0.68120805;stroke:none" />
    </g>
  </g>
</svg>
